<svg width="128" height="128" viewBox="0 0 128 128" xmlns="http://www.w3.org/2000/svg">
  <defs>
    <linearGradient id="bg" x1="0" y1="0" x2="1" y2="1">
      <stop offset="0%" stop-color="#171A1F"/>
      <stop offset="100%" stop-color="#0F1216"/>
    </linearGradient>
    <linearGradient id="accent" x1="0" y1="0" x2="1" y2="0">
      <stop offset="0%" stop-color="#F85149"/>
      <stop offset="100%" stop-color="#3FB950"/>
    </linearGradient>
  </defs>

  <rect x="6" y="6" width="116" height="116" rx="18" ry="18" fill="url(#bg)"/>
  <rect x="14" y="14" width="100" height="100" rx="14" ry="14" fill="none" stroke="#2A3038" stroke-width="2"/>

  <rect x="22" y="26" width="38" height="76" rx="8" ry="8" fill="#11151A" stroke="#39414C" stroke-width="2"/>
  <rect x="68" y="26" width="38" height="76" rx="8" ry="8" fill="#11151A" stroke="#39414C" stroke-width="2"/>

  <rect x="61" y="26" width="6" height="76" rx="3" ry="3" fill="#1B2027"/>

  <rect x="28" y="34" width="24" height="4" rx="2" ry="2" fill="#F85149"/>
  <rect x="28" y="44" width="18" height="4" rx="2" ry="2" fill="#F85149"/>
  <rect x="28" y="54" width="22" height="4" rx="2" ry="2" fill="#F85149"/>

  <rect x="74" y="40" width="22" height="4" rx="2" ry="2" fill="#3FB950"/>
  <rect x="74" y="50" width="18" height="4" rx="2" ry="2" fill="#3FB950"/>
  <rect x="74" y="60" width="24" height="4" rx="2" ry="2" fill="#3FB950"/>

  <rect x="24" y="90" width="80" height="6" rx="3" ry="3" fill="url(#accent)"/>
</svg>
